<svg width="40" height="40" viewBox="0 0 40 40" fill="none" xmlns="http://www.w3.org/2000/svg">
<mask id="mask0_978_2142" style="mask-type:alpha" maskUnits="userSpaceOnUse" x="0" y="0" width="40" height="40">
<rect width="40" height="40" fill="#D9D9D9"/>
</mask>
<g mask="url(#mask0_978_2142)">
<path d="M6.43587 33.6667C5.75318 33.6667 5.17653 33.4314 4.70592 32.9608C4.23531 32.4901 4 31.9135 4 31.2308V14.5064C4 14.3056 4.06781 14.1378 4.20342 14.0032C4.33903 13.8686 4.50801 13.8013 4.71037 13.8013C4.91271 13.8013 5.07994 13.8686 5.21208 14.0032C5.34419 14.1378 5.41025 14.3056 5.41025 14.5064V31.2308C5.41025 31.4872 5.51708 31.7223 5.73075 31.9359C5.94442 32.1496 6.17946 32.2564 6.43587 32.2564H28.2137C28.4145 32.2564 28.5823 32.3242 28.7169 32.4598C28.8515 32.5955 28.9188 32.7645 28.9188 32.9668C28.9188 33.1691 28.8515 33.3364 28.7169 33.4685C28.5823 33.6006 28.4145 33.6667 28.2137 33.6667H6.43587ZM13.2243 26.8654C12.5416 26.8654 11.965 26.6301 11.4944 26.1595C11.0238 25.6888 10.7885 25.1122 10.7885 24.4295V8.21792C10.7885 7.8675 10.9038 7.5769 11.1346 7.34613C11.3654 7.11538 11.656 7 12.0064 7H34.4488C34.7992 7 35.0898 7.11538 35.3205 7.34613C35.5513 7.5769 35.6667 7.8675 35.6667 8.21792V24.4295C35.6667 25.1122 35.4314 25.6888 34.9608 26.1595C34.4901 26.6301 33.9135 26.8654 33.2308 26.8654H13.2243ZM13.2243 25.4551H33.2308C33.4872 25.4551 33.7222 25.3483 33.9359 25.1346C34.1496 24.921 34.2564 24.6859 34.2564 24.4295V8.41025H12.1987V24.4295C12.1987 24.6859 12.3055 24.921 12.5192 25.1346C12.7329 25.3483 12.9679 25.4551 13.2243 25.4551ZM16.3184 20.2991H21.6688C21.8697 20.2991 22.0374 20.2318 22.172 20.0972C22.3066 19.9626 22.3739 19.7949 22.3739 19.594V12.4893C22.3739 12.2885 22.3066 12.1207 22.172 11.9861C22.0374 11.8515 21.8697 11.7842 21.6688 11.7842H16.3184C16.1175 11.7842 15.9498 11.8515 15.8152 11.9861C15.6806 12.1207 15.6132 12.2885 15.6132 12.4893V19.594C15.6132 19.7949 15.6806 19.9626 15.8152 20.0972C15.9498 20.2318 16.1175 20.2991 16.3184 20.2991ZM25.7949 20.2991H29.1282C29.6008 20.2991 30.0046 20.1313 30.3395 19.7955C30.6744 19.4598 30.8419 19.0551 30.8419 18.5813C30.8419 18.1076 30.6744 17.7042 30.3395 17.3712C30.0046 17.0383 29.6008 16.8718 29.1282 16.8718H25.7949C25.3223 16.8718 24.9185 17.0397 24.5836 17.3754C24.2487 17.7111 24.0812 18.1158 24.0812 18.5896C24.0812 19.0633 24.2487 19.4667 24.5836 19.7997C24.9185 20.1326 25.3223 20.2991 25.7949 20.2991ZM25.7949 15.2115H29.1282C29.6008 15.2115 30.0046 15.0437 30.3395 14.708C30.6744 14.3722 30.8419 13.9675 30.8419 13.4937C30.8419 13.02 30.6744 12.6166 30.3395 12.2836C30.0046 11.9507 29.6008 11.7842 29.1282 11.7842H25.7949C25.3223 11.7842 24.9185 11.952 24.5836 12.2878C24.2487 12.6235 24.0812 13.0282 24.0812 13.502C24.0812 13.9757 24.2487 14.3791 24.5836 14.7121C24.9185 15.0451 25.3223 15.2115 25.7949 15.2115Z" fill="white"/>
</g>
</svg>
