<svg width="40" height="40" viewBox="0 0 40 40" fill="none" xmlns="http://www.w3.org/2000/svg">
<mask id="mask0_978_2117" style="mask-type:alpha" maskUnits="userSpaceOnUse" x="0" y="0" width="40" height="40">
<rect width="40" height="40" fill="#D9D9D9"/>
</mask>
<g mask="url(#mask0_978_2117)">
<path d="M8.07675 18.4616C7.70067 18.4616 7.37162 18.3206 7.08959 18.0385C6.80753 17.7565 6.6665 17.4274 6.6665 17.0514V8.077C6.6665 7.70092 6.80753 7.37186 7.08959 7.08983C7.37162 6.80778 7.70067 6.66675 8.07675 6.66675H17.0511C17.4272 6.66675 17.7562 6.80778 18.0383 7.08983C18.3204 7.37186 18.4614 7.70092 18.4614 8.077V17.0514C18.4614 17.4274 18.3204 17.7565 18.0383 18.0385C17.7562 18.3206 17.4272 18.4616 17.0511 18.4616H8.07675ZM8.07675 33.3334C7.70067 33.3334 7.37162 33.1924 7.08959 32.9103C6.80753 32.6283 6.6665 32.2992 6.6665 31.9232V22.9488C6.6665 22.5727 6.80753 22.2437 7.08959 21.9616C7.37162 21.6796 7.70067 21.5385 8.07675 21.5385H17.0511C17.4272 21.5385 17.7562 21.6796 18.0383 21.9616C18.3204 22.2437 18.4614 22.5727 18.4614 22.9488V31.9232C18.4614 32.2992 18.3204 32.6283 18.0383 32.9103C17.7562 33.1924 17.4272 33.3334 17.0511 33.3334H8.07675ZM22.9485 18.4616C22.5725 18.4616 22.2434 18.3206 21.9614 18.0385C21.6793 17.7565 21.5383 17.4274 21.5383 17.0514V8.077C21.5383 7.70092 21.6793 7.37186 21.9614 7.08983C22.2434 6.80778 22.5725 6.66675 22.9485 6.66675H31.9229C32.299 6.66675 32.6281 6.80778 32.9101 7.08983C33.1921 7.37186 33.3332 7.70092 33.3332 8.077V17.0514C33.3332 17.4274 33.1921 17.7565 32.9101 18.0385C32.6281 18.3206 32.299 18.4616 31.9229 18.4616H22.9485ZM22.9485 33.3334C22.5725 33.3334 22.2434 33.1924 21.9614 32.9103C21.6793 32.6283 21.5383 32.2992 21.5383 31.9232V22.9488C21.5383 22.5727 21.6793 22.2437 21.9614 21.9616C22.2434 21.6796 22.5725 21.5385 22.9485 21.5385H31.9229C32.299 21.5385 32.6281 21.6796 32.9101 21.9616C33.1921 22.2437 33.3332 22.5727 33.3332 22.9488V31.9232C33.3332 32.2992 33.1921 32.6283 32.9101 32.9103C32.6281 33.1924 32.299 33.3334 31.9229 33.3334H22.9485ZM8.07675 17.0514H17.0511V8.077H8.07675V17.0514ZM22.9485 17.0514H31.9229V8.077H22.9485V17.0514ZM22.9485 31.9232H31.9229V22.9488H22.9485V31.9232ZM8.07675 31.9232H17.0511V22.9488H8.07675V31.9232Z" fill="white"/>
</g>
</svg>
