<svg width="140" height="30" viewBox="0 0 140 30" fill="none" xmlns="http://www.w3.org/2000/svg">
<g filter="url(#filter0_i_1280_9519)">
<path fill-rule="evenodd" clip-rule="evenodd" d="M26.7759 19.894L28.7032 25.3946C28.7032 25.3946 22.1229 26.4019 19.8431 24.7439C17.6208 23.1277 14.2593 15.0059 13.9539 14.268C13.946 14.2489 13.9401 14.2347 13.9364 14.2258C13.8783 14.0865 13.4603 13.158 12.9544 12.0343C12.8987 11.9106 12.842 11.7846 12.7845 11.657L12.641 11.9978C12.387 12.4388 11.889 13.7955 11.5015 14.8512C11.2493 15.5382 11.0439 16.0978 10.983 16.1947C10.8284 16.4403 9.23891 20.5486 9.11772 20.9097C8.99654 21.2708 7.51151 25.5211 7.51151 25.5211H1.3457C1.3457 25.5211 4.04307 18.7995 4.35088 18.2154C4.42908 18.067 4.53643 17.8468 4.67041 17.5721C5.0638 16.7654 5.68674 15.4881 6.47524 14.1739C7.30435 12.7921 7.53411 12.5999 7.8947 12.2983C7.99382 12.2154 8.10283 12.1242 8.2369 11.9978C8.84947 11.4201 8.85852 11.4174 10.147 11.031L10.2058 11.0133C11.0152 10.7705 11.8806 10.8194 12.4426 10.8972C11.7867 9.43882 11.1316 7.97737 10.9812 7.61277C10.9263 7.47971 10.8364 7.26942 10.7267 7.01263C10.2114 5.80637 9.25773 3.57395 9.42861 3.50034C9.63586 3.41107 10.5849 3.30067 12.0669 3.56728C13.5489 3.8339 14.6549 4.47393 15.6462 5.36563C16.6375 6.25734 17.3043 7.59361 18.2887 9.92522C18.362 10.0988 18.4438 10.2938 18.5331 10.5067C19.6431 13.1535 21.9054 18.5481 23.2303 19.4454C24.6618 20.415 26.7759 19.894 26.7759 19.894Z" fill="white"/>
</g>
<path d="M37.6526 4.8527V24.7905H33.8806V4.8527H37.6526ZM39.8975 17.2734C39.8975 15.7646 40.1938 14.4265 40.7866 13.2589C41.3973 12.0914 42.2146 11.1933 43.2384 10.5646C44.2802 9.93595 45.4388 9.62162 46.7141 9.62162C47.8277 9.62162 48.7976 9.84614 49.6239 10.2952C50.4681 10.7442 51.1417 11.31 51.6446 11.9926V9.8641H55.4436V24.7905H51.6446V22.6081C51.1596 23.3087 50.4861 23.8924 49.6239 24.3594C48.7797 24.8085 47.8008 25.033 46.6871 25.033C45.4298 25.033 44.2802 24.7097 43.2384 24.0631C42.2146 23.4164 41.3973 22.5094 40.7866 21.3418C40.1938 20.1563 39.8975 18.8002 39.8975 17.2734ZM51.6446 17.3273C51.6446 16.4113 51.465 15.6299 51.1058 14.9833C50.7465 14.3187 50.2615 13.8157 49.6508 13.4745C49.0401 13.1152 48.3845 12.9356 47.684 12.9356C46.9835 12.9356 46.3369 13.1062 45.7441 13.4475C45.1514 13.7888 44.6664 14.2917 44.2892 14.9563C43.9299 15.603 43.7503 16.3753 43.7503 17.2734C43.7503 18.1715 43.9299 18.9619 44.2892 19.6444C44.6664 20.309 45.1514 20.8209 45.7441 21.1802C46.3548 21.5394 47.0014 21.719 47.684 21.719C48.3845 21.719 49.0401 21.5484 49.6508 21.2071C50.2615 20.8479 50.7465 20.3449 51.1058 19.6983C51.465 19.0337 51.6446 18.2434 51.6446 17.3273ZM77.1525 9.64856C78.9846 9.64856 80.4575 10.2144 81.5711 11.346C82.7028 12.4596 83.2686 14.0223 83.2686 16.0341V24.7905H79.4965V16.546C79.4965 15.3784 79.2002 14.4893 78.6074 13.8786C78.0147 13.2499 77.2064 12.9356 76.1825 12.9356C75.1587 12.9356 74.3414 13.2499 73.7307 13.8786C73.138 14.4893 72.8416 15.3784 72.8416 16.546V24.7905H69.0696V16.546C69.0696 15.3784 68.7732 14.4893 68.1805 13.8786C67.5877 13.2499 66.7794 12.9356 65.7556 12.9356C64.7138 12.9356 63.8876 13.2499 63.2768 13.8786C62.6841 14.4893 62.3877 15.3784 62.3877 16.546V24.7905H58.6157V9.8641H62.3877V11.6693C62.8727 11.0406 63.4924 10.5467 64.2468 10.1874C65.0192 9.82818 65.8634 9.64856 66.7794 9.64856C67.947 9.64856 68.9888 9.90003 69.9048 10.403C70.8209 10.8879 71.5304 11.5885 72.0333 12.5045C72.5183 11.6423 73.2188 10.9508 74.1349 10.4299C75.0689 9.90901 76.0748 9.64856 77.1525 9.64856ZM90.1081 12.0465C90.5931 11.328 91.2576 10.7442 92.1019 10.2952C92.964 9.84614 93.943 9.62162 95.0386 9.62162C96.314 9.62162 97.4635 9.93595 98.4874 10.5646C99.5291 11.1933 100.346 12.0914 100.939 13.2589C101.55 14.4085 101.855 15.7467 101.855 17.2734C101.855 18.8002 101.55 20.1563 100.939 21.3418C100.346 22.5094 99.5291 23.4164 98.4874 24.0631C97.4635 24.7097 96.314 25.033 95.0386 25.033C93.925 25.033 92.9461 24.8175 92.1019 24.3864C91.2756 23.9373 90.611 23.3625 90.1081 22.662V24.7905H86.3361V4.8527H90.1081V12.0465ZM98.0024 17.2734C98.0024 16.3753 97.8138 15.603 97.4366 14.9563C97.0773 14.2917 96.5924 13.7888 95.9817 13.4475C95.3889 13.1062 94.7423 12.9356 94.0418 12.9356C93.3592 12.9356 92.7126 13.1152 92.1019 13.4745C91.5091 13.8157 91.0241 14.3187 90.6469 14.9833C90.2877 15.6479 90.1081 16.4292 90.1081 17.3273C90.1081 18.2254 90.2877 19.0068 90.6469 19.6714C91.0241 20.336 91.5091 20.8479 92.1019 21.2071C92.7126 21.5484 93.3592 21.719 94.0418 21.719C94.7423 21.719 95.3889 21.5394 95.9817 21.1802C96.5924 20.8209 97.0773 20.309 97.4366 19.6444C97.8138 18.9798 98.0024 18.1895 98.0024 17.2734ZM103.114 17.2734C103.114 15.7646 103.411 14.4265 104.004 13.2589C104.614 12.0914 105.44 11.1933 106.482 10.5646C107.524 9.93595 108.683 9.62162 109.958 9.62162C110.928 9.62162 111.853 9.83716 112.733 10.2682C113.613 10.6814 114.314 11.2382 114.835 11.9387V4.8527H118.661V24.7905H114.835V22.5812C114.368 23.3176 113.712 23.9104 112.868 24.3594C112.024 24.8085 111.045 25.033 109.931 25.033C108.674 25.033 107.524 24.7097 106.482 24.0631C105.44 23.4164 104.614 22.5094 104.004 21.3418C103.411 20.1563 103.114 18.8002 103.114 17.2734ZM114.862 17.3273C114.862 16.4113 114.682 15.6299 114.323 14.9833C113.963 14.3187 113.478 13.8157 112.868 13.4745C112.257 13.1152 111.601 12.9356 110.901 12.9356C110.2 12.9356 109.554 13.1062 108.961 13.4475C108.368 13.7888 107.883 14.2917 107.506 14.9563C107.147 15.603 106.967 16.3753 106.967 17.2734C106.967 18.1715 107.147 18.9619 107.506 19.6444C107.883 20.309 108.368 20.8209 108.961 21.1802C109.572 21.5394 110.218 21.719 110.901 21.719C111.601 21.719 112.257 21.5484 112.868 21.2071C113.478 20.8479 113.963 20.3449 114.323 19.6983C114.682 19.0337 114.862 18.2434 114.862 17.3273ZM120.863 17.2734C120.863 15.7646 121.159 14.4265 121.752 13.2589C122.363 12.0914 123.18 11.1933 124.204 10.5646C125.245 9.93595 126.404 9.62162 127.679 9.62162C128.793 9.62162 129.763 9.84614 130.589 10.2952C131.433 10.7442 132.107 11.31 132.61 11.9926V9.8641H136.409V24.7905H132.61V22.6081C132.125 23.3087 131.451 23.8924 130.589 24.3594C129.745 24.8085 128.766 25.033 127.652 25.033C126.395 25.033 125.245 24.7097 124.204 24.0631C123.18 23.4164 122.363 22.5094 121.752 21.3418C121.159 20.1563 120.863 18.8002 120.863 17.2734ZM132.61 17.3273C132.61 16.4113 132.43 15.6299 132.071 14.9833C131.712 14.3187 131.227 13.8157 130.616 13.4745C130.005 13.1152 129.35 12.9356 128.649 12.9356C127.949 12.9356 127.302 13.1062 126.709 13.4475C126.117 13.7888 125.632 14.2917 125.254 14.9563C124.895 15.603 124.716 16.3753 124.716 17.2734C124.716 18.1715 124.895 18.9619 125.254 19.6444C125.632 20.309 126.117 20.8209 126.709 21.1802C127.32 21.5394 127.967 21.719 128.649 21.719C129.35 21.719 130.005 21.5484 130.616 21.2071C131.227 20.8479 131.712 20.3449 132.071 19.6983C132.43 19.0337 132.61 18.2434 132.61 17.3273Z" fill="white"/>
<defs>
<filter id="filter0_i_1280_9519" x="1.3457" y="3.39987" width="27.3574" height="22.7123" filterUnits="userSpaceOnUse" color-interpolation-filters="sRGB">
<feFlood flood-opacity="0" result="BackgroundImageFix"/>
<feBlend mode="normal" in="SourceGraphic" in2="BackgroundImageFix" result="shape"/>
<feColorMatrix in="SourceAlpha" type="matrix" values="0 0 0 0 0 0 0 0 0 0 0 0 0 0 0 0 0 0 127 0" result="hardAlpha"/>
<feOffset dy="0.414508"/>
<feGaussianBlur stdDeviation="0.207254"/>
<feComposite in2="hardAlpha" operator="arithmetic" k2="-1" k3="1"/>
<feColorMatrix type="matrix" values="0 0 0 0 0 0 0 0 0 0 0 0 0 0 0 0 0 0 0.25 0"/>
<feBlend mode="normal" in2="shape" result="effect1_innerShadow_1280_9519"/>
</filter>
</defs>
</svg>
