<svg width="41" height="41" viewBox="0 0 41 41" fill="none" xmlns="http://www.w3.org/2000/svg">
<mask id="mask0_1296_9547" style="mask-type:alpha" maskUnits="userSpaceOnUse" x="0" y="0" width="41" height="41">
<rect x="0.295654" y="0.87207" width="40" height="40" fill="#D9D9D9"/>
</mask>
<g mask="url(#mask0_1296_9547)">
<path d="M6.40678 35.8717C5.65678 35.8717 5.00632 35.5963 4.4554 35.0454C3.90449 34.4945 3.62903 33.844 3.62903 33.094V25.5662H16.1568V28.344H24.4901V25.5662H36.9624V33.094C36.9624 33.844 36.6869 34.4945 36.136 35.0454C35.5851 35.5963 34.9346 35.8717 34.1846 35.8717H6.40678ZM18.9346 25.5662V22.7884H21.7124V25.5662H18.9346ZM3.62903 22.7884V13.6495C3.62903 12.8995 3.90449 12.249 4.4554 11.6981C5.00632 11.1472 5.65678 10.8717 6.40678 10.8717H13.629V6.98283C13.629 6.23283 13.9045 5.58237 14.4554 5.03145C15.0063 4.48054 15.6568 4.20508 16.4068 4.20508H24.1846C24.9346 4.20508 25.5851 4.48054 26.136 5.03145C26.6869 5.58237 26.9624 6.23283 26.9624 6.98283V10.8717H34.1846C34.9346 10.8717 35.5851 11.1472 36.136 11.6981C36.6869 12.249 36.9624 12.8995 36.9624 13.6495V22.7884H24.4901V20.0107H16.1568V22.7884H3.62903ZM16.4068 10.8717H24.1846V6.98283H16.4068V10.8717Z" fill="white"/>
</g>
</svg>
