<svg width="51" height="46" viewBox="0 0 51 46" fill="none" xmlns="http://www.w3.org/2000/svg">
<path d="M17.9246 25.125L21.306 22.014C21.6158 21.729 21.7687 21.3954 21.7647 21.0133C21.7607 20.6312 21.6078 20.2915 21.306 19.9942C20.9828 19.6969 20.6116 19.5433 20.1922 19.5335C19.7729 19.5237 19.4017 19.6674 19.0785 19.9647L14.7877 23.9123C14.4111 24.2588 14.2228 24.663 14.2228 25.125C14.2228 25.5869 14.4111 25.9911 14.7877 26.3376L19.0785 30.2852C19.3883 30.5702 19.7562 30.7109 20.1822 30.7072C20.6082 30.7035 20.9828 30.553 21.306 30.2557C21.6078 29.9584 21.7641 29.6217 21.7747 29.2458C21.7854 28.8698 21.6292 28.5332 21.306 28.2359L17.9246 25.125ZM32.492 25.125L29.1106 28.2359C28.8007 28.5209 28.6478 28.8545 28.6518 29.2366C28.6558 29.6187 28.8087 29.9584 29.1106 30.2557C29.4337 30.553 29.805 30.7066 30.2243 30.7164C30.6436 30.7263 31.0149 30.5825 31.3381 30.2852L35.6289 26.3376C36.0055 25.9911 36.1938 25.5869 36.1938 25.125C36.1938 24.663 36.0055 24.2588 35.6289 23.9123L31.3381 19.9647C31.0282 19.6797 30.6603 19.539 30.2343 19.5427C29.8083 19.5464 29.4337 19.6969 29.1106 19.9942C28.8087 20.2915 28.6525 20.6282 28.6418 21.0041C28.6311 21.3801 28.7874 21.7167 29.1106 22.014L32.492 25.125ZM11.266 41.4166C10.227 41.4166 9.33964 41.0781 8.6038 40.4011C7.86793 39.7241 7.5 38.9077 7.5 37.9518V12.2981C7.5 11.3422 7.86793 10.5258 8.6038 9.84883C9.33964 9.17183 10.227 8.83333 11.266 8.83333H20.5369C20.6677 7.76936 21.1725 6.86449 22.0512 6.11871C22.93 5.37291 23.9823 5 25.2083 5C26.4476 5 27.5066 5.37291 28.3853 6.11871C29.2641 6.86449 29.7622 7.76936 29.8797 8.83333H39.1505C40.1895 8.83333 41.0769 9.17183 41.8128 9.84883C42.5486 10.5258 42.9166 11.3422 42.9166 12.2981V37.9518C42.9166 38.9077 42.5486 39.7241 41.8128 40.4011C41.0769 41.0781 40.1895 41.4166 39.1505 41.4166H11.266ZM11.266 38.5416H39.1505C39.3108 38.5416 39.4577 38.4802 39.5913 38.3573C39.7248 38.2344 39.7916 38.0993 39.7916 37.9518V12.2981C39.7916 12.1506 39.7248 12.0155 39.5913 11.8926C39.4577 11.7697 39.3108 11.7083 39.1505 11.7083H11.266C11.1058 11.7083 10.9588 11.7697 10.8253 11.8926C10.6917 12.0155 10.6249 12.1506 10.6249 12.2981V37.9518C10.6249 38.0993 10.6917 38.2344 10.8253 38.3573C10.9588 38.4802 11.1058 38.5416 11.266 38.5416ZM25.2083 10.4551C25.6597 10.4551 26.0329 10.3193 26.3281 10.0478C26.6232 9.77626 26.7708 9.43285 26.7708 9.01757C26.7708 8.6023 26.6232 8.25889 26.3281 7.98737C26.0329 7.71584 25.6597 7.58007 25.2083 7.58007C24.7569 7.58007 24.3836 7.71584 24.0885 7.98737C23.7934 8.25889 23.6458 8.6023 23.6458 9.01757C23.6458 9.43285 23.7934 9.77626 24.0885 10.0478C24.3836 10.3193 24.7569 10.4551 25.2083 10.4551Z" fill="white"/>
</svg>
