<svg width="40" height="40" viewBox="0 0 40 40" fill="none" xmlns="http://www.w3.org/2000/svg">
<mask id="mask0_1296_9553" style="mask-type:alpha" maskUnits="userSpaceOnUse" x="0" y="0" width="40" height="40">
<rect width="40" height="40" fill="#D9D9D9"/>
</mask>
<g mask="url(#mask0_1296_9553)">
<path d="M16.625 20C15.9768 20 15.4444 19.7546 15.0278 19.2639C14.6111 18.7732 14.463 18.213 14.5833 17.5833L15.1667 14.0833C15.3889 12.8889 15.9514 11.9097 16.8542 11.1458C17.7569 10.3819 18.8056 10 20 10C21.2222 10 22.2847 10.3819 23.1875 11.1458C24.0903 11.9097 24.6528 12.8889 24.875 14.0833L25.4583 17.5833C25.5787 18.213 25.4305 18.7732 25.0139 19.2639C24.5972 19.7546 24.0648 20 23.4167 20H16.625ZM5.58333 22.5166C5 22.5426 4.49444 22.4278 4.06667 22.1723C3.63889 21.9167 3.36019 21.5206 3.23058 20.9839C3.17872 20.7539 3.17131 20.5232 3.20833 20.2917C3.24539 20.0602 3.31021 19.8395 3.40279 19.6297C3.40279 19.6559 3.3889 19.6034 3.36112 19.4723C3.34262 19.4352 3.21485 19.1291 2.97779 18.554C2.91854 18.2402 2.9491 17.9538 3.06946 17.6945C3.18982 17.4352 3.36111 17.1945 3.58333 16.9722L3.66667 16.8889C3.72222 16.3982 3.92154 15.9908 4.26463 15.6667C4.60771 15.3426 5.03339 15.1806 5.54167 15.1806C5.58797 15.1806 5.82556 15.2269 6.25442 15.3195L6.375 15.2778C6.51389 15.1574 6.6821 15.0625 6.87962 14.9931C7.07715 14.9236 7.28703 14.8889 7.50925 14.8889C7.78086 14.8889 8.0301 14.9375 8.25696 15.0347C8.48379 15.132 8.66019 15.2697 8.78617 15.448C8.81136 15.448 8.83026 15.4543 8.84288 15.467C8.85546 15.4798 8.87435 15.4862 8.89954 15.4862C9.25226 15.5116 9.56089 15.6198 9.82542 15.8108C10.0899 16.0018 10.2917 16.2624 10.4305 16.5926C10.4861 16.7705 10.5069 16.9419 10.493 17.107C10.4792 17.2722 10.4444 17.431 10.3889 17.5834C10.3889 17.6297 10.4028 17.676 10.4305 17.7222C10.6077 17.901 10.7469 18.0989 10.8481 18.3159C10.9494 18.5329 11 18.7564 11 18.9862C11 19.0602 10.9259 19.3259 10.7778 19.7831C10.75 19.8369 10.75 19.8907 10.7778 19.9445C10.7963 20.0185 10.8148 20.2223 10.8333 20.5556C10.8333 21.0834 10.6114 21.5421 10.1676 21.9319C9.72375 22.3217 9.18479 22.5166 8.55071 22.5166H5.58333ZM33.5531 22.5C32.7121 22.5 31.9931 22.1997 31.3958 21.5989C30.7986 20.9982 30.5 20.276 30.5 19.4324C30.5 19.1256 30.5486 18.8357 30.6458 18.5625C30.7431 18.2894 30.8657 18.0325 31.0139 17.7917L29.9306 16.8334C29.6898 16.6112 29.6458 16.3519 29.7986 16.0556C29.9514 15.7593 30.1809 15.6112 30.4871 15.6112H33.5491C34.3911 15.6112 35.112 15.9114 35.7116 16.5118C36.3113 17.1122 36.6111 17.834 36.6111 18.6771V19.4436C36.6111 20.2868 36.3117 21.007 35.7128 21.6042C35.114 22.2014 34.3941 22.5 33.5531 22.5ZM0 30V27.6528C0 26.5146 0.594903 25.6027 1.78471 24.9172C2.97454 24.2317 4.51296 23.8889 6.39996 23.8889C6.74546 23.8889 7.07767 23.8959 7.39658 23.9098C7.71553 23.9236 8.02778 23.9558 8.33333 24.0063C8.05556 24.5114 7.84722 25.0331 7.70833 25.5714C7.56944 26.1097 7.5 26.6831 7.5 27.2917V30H0ZM10 30V27.2917C10 25.4861 10.9236 24.0278 12.7708 22.9167C14.6181 21.8056 17.0278 21.25 20 21.25C23 21.25 25.4167 21.8056 27.25 22.9167C29.0833 24.0278 30 25.4861 30 27.2917V30H10ZM33.6111 23.8889C35.5278 23.8889 37.0718 24.2317 38.243 24.9172C39.4143 25.6027 40 26.5146 40 27.6528V30H32.5V27.2917C32.5 26.6831 32.4375 26.1097 32.3125 25.5714C32.1875 25.0331 31.9907 24.5114 31.7222 24.0063C32.0278 23.9558 32.3373 23.9236 32.6506 23.9098C32.964 23.8959 33.2841 23.8889 33.6111 23.8889Z" fill="white"/>
</g>
</svg>
