<svg width="25" height="24" viewBox="0 0 25 24" fill="none" xmlns="http://www.w3.org/2000/svg">
<mask id="mask0_1312_9601" style="mask-type:alpha" maskUnits="userSpaceOnUse" x="0" y="0" width="25" height="24">
<rect x="0.0444336" width="24" height="24" fill="#D9D9D9"/>
</mask>
<g mask="url(#mask0_1312_9601)">
<path d="M12.0461 21.5C10.7321 21.5 9.49712 21.2506 8.34098 20.752C7.18483 20.2533 6.17915 19.5765 5.32393 18.7217C4.4687 17.8669 3.79164 16.8616 3.29276 15.706C2.79388 14.5504 2.54443 13.3156 2.54443 12.0017C2.54443 10.6877 2.79377 9.45268 3.29243 8.29655C3.7911 7.1404 4.46785 6.13472 5.32268 5.2795C6.17753 4.42427 7.18278 3.74721 8.33841 3.24833C9.49403 2.74944 10.7288 2.5 12.0427 2.5C13.3567 2.5 14.5917 2.74933 15.7478 3.248C16.904 3.74667 17.9097 4.42342 18.7649 5.27825C19.6201 6.1331 20.2972 7.13834 20.7961 8.29398C21.2949 9.44959 21.5444 10.6844 21.5444 11.9983C21.5444 13.3122 21.2951 14.5473 20.7964 15.7034C20.2977 16.8596 19.621 17.8652 18.7661 18.7205C17.9113 19.5757 16.906 20.2527 15.7504 20.7516C14.5948 21.2505 13.36 21.5 12.0461 21.5ZM12.0444 20C14.2777 20 16.1694 19.225 17.7194 17.675C19.2694 16.125 20.0444 14.2333 20.0444 12C20.0444 9.76664 19.2694 7.87498 17.7194 6.32498C16.1694 4.77498 14.2777 3.99998 12.0444 3.99998C9.81108 3.99998 7.91941 4.77498 6.36941 6.32498C4.81941 7.87498 4.04441 9.76664 4.04441 12C4.04441 14.2333 4.81941 16.125 6.36941 17.675C7.91941 19.225 9.81108 20 12.0444 20ZM12.0194 18.8077C12.2015 18.8077 12.3608 18.7394 12.4973 18.6029C12.6338 18.4663 12.7021 18.307 12.7021 18.125V17.5961C13.4777 17.491 14.18 17.1996 14.8088 16.7221C15.4377 16.2445 15.7521 15.5205 15.7521 14.55C15.7521 13.85 15.5457 13.2308 15.1329 12.6923C14.72 12.1538 13.9136 11.6679 12.7136 11.2346C11.6623 10.8756 10.9643 10.5647 10.6194 10.3019C10.2745 10.0391 10.1021 9.67178 10.1021 9.19998C10.1021 8.72818 10.2787 8.34484 10.6319 8.04998C10.9851 7.75509 11.4726 7.60765 12.0944 7.60765C12.4662 7.60765 12.7915 7.6772 13.0704 7.8163C13.3492 7.95542 13.5848 8.141 13.7771 8.37305C13.8989 8.52177 14.0399 8.62561 14.2002 8.68458C14.3604 8.74354 14.5122 8.74098 14.6555 8.67688C14.851 8.59996 14.9845 8.46855 15.0561 8.28265C15.1278 8.09677 15.1098 7.92626 15.0021 7.77113C14.7354 7.39421 14.4047 7.08043 14.0098 6.8298C13.6149 6.57915 13.1957 6.43716 12.7521 6.40383V5.87498C12.7521 5.69293 12.6838 5.53363 12.5473 5.3971C12.4108 5.26057 12.2515 5.1923 12.0694 5.1923C11.8874 5.1923 11.7281 5.26057 11.5915 5.3971C11.455 5.53363 11.3867 5.69293 11.3867 5.87498V6.40383C10.5342 6.56793 9.87936 6.91376 9.42231 7.44133C8.96526 7.96889 8.73673 8.55511 8.73673 9.19998C8.73673 9.95126 8.9643 10.5557 9.41943 11.0134C9.87455 11.4711 10.6162 11.8846 11.6444 12.2538C12.7073 12.6436 13.4332 12.9932 13.8223 13.3029C14.2114 13.6125 14.406 14.0282 14.406 14.55C14.406 15.1769 14.1797 15.6324 13.7271 15.9163C13.2745 16.2003 12.7636 16.3423 12.1944 16.3423C11.7194 16.3423 11.2901 16.2237 10.9064 15.9865C10.5228 15.7493 10.2014 15.4064 9.94246 14.9577C9.84119 14.782 9.70466 14.6638 9.53286 14.6029C9.36108 14.542 9.19289 14.5439 9.02831 14.6087C8.85108 14.6735 8.72131 14.7965 8.63901 14.9779C8.55673 15.1593 8.55597 15.3327 8.63673 15.4981C8.91622 16.0583 9.28096 16.5064 9.73096 16.8423C10.181 17.1782 10.7162 17.4128 11.3367 17.5461V18.125C11.3367 18.307 11.405 18.4663 11.5415 18.6029C11.6781 18.7394 11.8374 18.8077 12.0194 18.8077Z" fill="#374957" fill-opacity="0.8"/>
</g>
</svg>
