<svg width="24" height="24" viewBox="0 0 24 24" fill="none" xmlns="http://www.w3.org/2000/svg">
<mask id="mask0_1312_9594" style="mask-type:alpha" maskUnits="userSpaceOnUse" x="0" y="0" width="24" height="24">
<rect width="24" height="24" fill="#D9D9D9"/>
</mask>
<g mask="url(#mask0_1312_9594)">
<path d="M4.3077 20.4999C3.81058 20.4999 3.38503 20.3229 3.03102 19.9688C2.67701 19.6148 2.5 19.1893 2.5 18.6922V10.1537C2.5 9.86752 2.56402 9.59638 2.69207 9.34029C2.82012 9.08421 2.99712 8.87332 3.22307 8.70762L8.91538 4.41917C9.08136 4.29865 9.25489 4.20827 9.43598 4.14802C9.61706 4.08775 9.80569 4.05762 10.0019 4.05762C10.198 4.05762 10.3862 4.08775 10.5665 4.14802C10.7467 4.20827 10.9194 4.29865 11.0846 4.41917L13.6365 6.34414C13.8391 6.49928 13.9429 6.67747 13.948 6.87874C13.9532 7.08002 13.8996 7.25833 13.7872 7.41367C13.6749 7.569 13.522 7.66932 13.3286 7.71462C13.1352 7.75992 12.932 7.70501 12.7192 7.54989L10.1827 5.62489C10.1314 5.58002 10.0705 5.55759 9.99998 5.55759C9.92946 5.55759 9.86856 5.58002 9.81728 5.62489L4.12498 9.90374C4.08653 9.93579 4.05608 9.97265 4.03363 10.0143C4.01119 10.056 3.99998 10.1025 3.99998 10.1537V18.6922C3.99998 18.7819 4.02883 18.8556 4.08653 18.9133C4.14423 18.971 4.21795 18.9999 4.3077 18.9999H7.3077C7.52018 18.9999 7.6983 19.0718 7.84205 19.2156C7.9858 19.3594 8.05768 19.5376 8.05768 19.7502C8.05768 19.9628 7.9858 20.1409 7.84205 20.2845C7.6983 20.4281 7.52018 20.4999 7.3077 20.4999H4.3077ZM16 16.096C16.8743 16.096 17.7227 16.2079 18.5452 16.4316C19.3676 16.6554 20.1525 16.989 20.9 17.4326C21.1551 17.5903 21.3605 17.7976 21.5163 18.0547C21.6721 18.3117 21.75 18.5896 21.75 18.8883V19.0614C21.75 19.4601 21.6131 19.7995 21.3394 20.0797C21.0657 20.3598 20.7231 20.4999 20.3115 20.4999H11.6884C11.2897 20.4999 10.9503 20.3598 10.6702 20.0797C10.3901 19.7995 10.25 19.4601 10.25 19.0614V18.8883C10.25 18.5896 10.3279 18.3117 10.4837 18.0547C10.6394 17.7976 10.8449 17.5903 11.1 17.4326C11.8474 16.989 12.6324 16.6554 13.4548 16.4316C14.2772 16.2079 15.1256 16.096 16 16.096ZM11.8423 18.9999H20.1577V18.7306C19.5231 18.3653 18.8567 18.0848 18.1587 17.8893C17.4606 17.6938 16.741 17.596 16 17.596C15.2589 17.596 14.5394 17.6938 13.8413 17.8893C13.1432 18.0848 12.4769 18.3653 11.8423 18.7306V18.9999ZM16.0011 14.5479C15.2375 14.5479 14.5881 14.2807 14.0529 13.7462C13.5176 13.2117 13.25 12.5627 13.25 11.7991C13.25 11.0355 13.5173 10.3861 14.0518 9.85084C14.5863 9.31559 15.2353 9.04797 15.9989 9.04797C16.7624 9.04797 17.4118 9.31522 17.9471 9.84972C18.4823 10.3842 18.75 11.0333 18.75 11.7968C18.75 12.5604 18.4827 13.2098 17.9482 13.7451C17.4137 14.2803 16.7647 14.5479 16.0011 14.5479ZM16 13.048C16.3474 13.048 16.6426 12.9265 16.8856 12.6835C17.1285 12.4406 17.25 12.1454 17.25 11.7979C17.25 11.4505 17.1285 11.1553 16.8856 10.9124C16.6426 10.6694 16.3474 10.5479 16 10.5479C15.6525 10.5479 15.3573 10.6694 15.1144 10.9124C14.8714 11.1553 14.75 11.4505 14.75 11.7979C14.75 12.1454 14.8714 12.4406 15.1144 12.6835C15.3573 12.9265 15.6525 13.048 16 13.048Z" fill="#374957" fill-opacity="0.8"/>
</g>
</svg>
