<svg width="47" height="46" viewBox="0 0 47 46" fill="none" xmlns="http://www.w3.org/2000/svg">
<path d="M18.0822 19.5099L22.0888 15.5217C22.3148 15.2957 22.5796 15.1826 22.883 15.1826C23.1865 15.1826 23.4513 15.2957 23.6773 15.5217C23.9157 15.7478 24.0318 16.0156 24.0256 16.3253C24.0195 16.6349 23.9034 16.9027 23.6773 17.1288L19.3427 21.4929C18.9962 21.8393 18.592 22.0095 18.1301 22.0033C17.6681 21.9972 17.2639 21.827 16.9174 21.4929L14.6911 19.3329C14.4528 19.1265 14.3336 18.8667 14.3336 18.5534C14.3336 18.2401 14.4528 17.9643 14.6911 17.7259C14.9295 17.4876 15.1973 17.3684 15.4947 17.3684C15.792 17.3684 16.0598 17.4876 16.2982 17.7259L18.0822 19.5099ZM19.2211 30.4422C15.948 30.4422 13.1763 29.3069 10.9058 27.0364C8.63526 24.7659 7.5 21.9941 7.5 18.7211C7.5 15.448 8.63526 12.6762 10.9058 10.4057C13.1763 8.13524 15.948 7 19.2211 7C22.4941 7 25.2659 8.13524 27.5364 10.4057C29.807 12.6762 30.9422 15.448 30.9422 18.7211C30.9422 20.0898 30.7125 21.397 30.2529 22.6429C29.7934 23.8887 29.1803 24.9724 28.4137 25.8938L39.4419 36.922C39.7073 37.1874 39.843 37.521 39.8492 37.9228C39.8553 38.3245 39.7196 38.6642 39.4419 38.9419C39.1642 39.2195 38.8276 39.3584 38.432 39.3584C38.0364 39.3584 37.6998 39.2195 37.4221 38.9419L26.3938 27.9137C25.4355 28.7049 24.3334 29.3241 23.0876 29.7713C21.8417 30.2186 20.5529 30.4422 19.2211 30.4422ZM19.2211 27.5673C21.6906 27.5673 23.7824 26.7103 25.4963 24.9964C27.2103 23.2824 28.0673 21.1906 28.0673 18.7211C28.0673 16.2515 27.2103 14.1598 25.4963 12.4458C23.7824 10.7319 21.6906 9.8749 19.2211 9.8749C16.7515 9.8749 14.6598 10.7319 12.9458 12.4458C11.2319 14.1598 10.375 16.2515 10.375 18.7211C10.375 21.1906 11.2319 23.2824 12.9458 24.9964C14.6598 26.7103 16.7515 27.5673 19.2211 27.5673Z" fill="white"/>
</svg>
