<svg width="24" height="24" viewBox="0 0 24 24" fill="none" xmlns="http://www.w3.org/2000/svg">
<mask id="mask0_1328_9813" style="mask-type:alpha" maskUnits="userSpaceOnUse" x="0" y="0" width="24" height="24">
<rect width="24" height="24" fill="#D9D9D9"/>
</mask>
<g mask="url(#mask0_1328_9813)">
<path d="M17.8152 20.8844C17.4357 20.8011 17.1232 20.6911 16.8777 20.5546C16.6322 20.4181 16.3985 20.2254 16.1767 19.9767L15.7017 20.1633C15.5876 20.2043 15.4777 20.2088 15.3719 20.1767C15.2661 20.1447 15.1806 20.0819 15.1152 19.9883L15.0498 19.8498C14.9844 19.7395 14.9556 19.6286 14.9632 19.5171C14.9709 19.4056 15.028 19.3068 15.1344 19.2209L15.4921 18.919C15.3818 18.5652 15.3267 18.2203 15.3267 17.8844C15.3267 17.5485 15.3818 17.2036 15.4921 16.8498L15.1344 16.5479C15.0408 16.4748 14.9838 16.3803 14.9632 16.2642C14.9427 16.1482 14.9652 16.035 15.0306 15.9248L15.1402 15.7806C15.2055 15.687 15.287 15.6241 15.3844 15.5921C15.4819 15.56 15.5876 15.5645 15.7017 15.6056L16.1767 15.7921C16.3985 15.5306 16.6322 15.3347 16.8777 15.2046C17.1232 15.0745 17.4357 14.9678 17.8152 14.8844L17.869 14.4286C17.8934 14.3107 17.9514 14.2097 18.0431 14.1257C18.1347 14.0418 18.2395 13.9998 18.3575 13.9998H18.4883C18.6062 13.9998 18.711 14.0427 18.8027 14.1286C18.8944 14.2145 18.9524 14.3164 18.9767 14.4344L19.0306 14.8844C19.41 14.9678 19.7225 15.0745 19.9681 15.2046C20.2136 15.3347 20.4472 15.5306 20.669 15.7921L21.144 15.6056C21.2581 15.5645 21.3681 15.56 21.4738 15.5921C21.5796 15.6241 21.6652 15.687 21.7306 15.7806L21.796 15.919C21.8613 16.0293 21.8902 16.1402 21.8825 16.2517C21.8748 16.3633 21.8178 16.462 21.7113 16.5479L21.3536 16.8498C21.4639 17.2036 21.519 17.5485 21.519 17.8844C21.519 18.2203 21.4639 18.5652 21.3536 18.919L21.7113 19.2209C21.8049 19.294 21.862 19.3886 21.8825 19.5046C21.903 19.6206 21.8806 19.7338 21.8152 19.844L21.7056 19.9883C21.6402 20.0819 21.5588 20.1447 21.4613 20.1767C21.3639 20.2088 21.2581 20.2043 21.144 20.1633L20.669 19.9767C20.4472 20.2254 20.2136 20.4181 19.9681 20.5546C19.7225 20.6911 19.41 20.8011 19.0306 20.8844L18.9767 21.3402C18.9524 21.4581 18.8944 21.5591 18.8027 21.6431C18.711 21.727 18.6062 21.769 18.4883 21.769H18.3575C18.2395 21.769 18.1347 21.7261 18.0431 21.6402C17.9514 21.5543 17.8934 21.4524 17.869 21.3344L17.8152 20.8844ZM18.4229 20.0382C19.0113 20.0382 19.5174 19.8264 19.9411 19.4027C20.3649 18.979 20.5767 18.4729 20.5767 17.8844C20.5767 17.296 20.3649 16.7899 19.9411 16.3661C19.5174 15.9424 19.0113 15.7306 18.4229 15.7306C17.8344 15.7306 17.3283 15.9424 16.9046 16.3661C16.4809 16.7899 16.269 17.296 16.269 17.8844C16.269 18.4729 16.4809 18.979 16.9046 19.4027C17.3283 19.8264 17.8344 20.0382 18.4229 20.0382ZM4.94402 20.9998C4.58377 20.9998 4.33537 20.8341 4.19882 20.5027C4.06228 20.1713 4.1203 19.8793 4.37287 19.6267L19.6267 4.37287C19.8793 4.1203 20.1713 4.06228 20.5027 4.19882C20.8341 4.33537 20.9998 4.58377 20.9998 4.94402V11.1786C20.9998 11.3081 20.952 11.4197 20.8565 11.5132C20.761 11.6068 20.6421 11.6536 20.4998 11.6536C20.3575 11.6536 20.2386 11.6068 20.1431 11.5132C20.0475 11.4197 19.9998 11.3017 19.9998 11.1594V5.42094L5.42094 19.9998H12.1209C12.2633 19.9998 12.3812 20.0476 12.4748 20.1431C12.5684 20.2386 12.6152 20.3575 12.6152 20.4998C12.6152 20.6421 12.5684 20.761 12.4748 20.8565C12.3812 20.952 12.2633 20.9998 12.1209 20.9998H4.94402Z" fill="#374957"/>
</g>
</svg>
