<svg width="20" height="20" viewBox="0 0 20 20" fill="none" xmlns="http://www.w3.org/2000/svg">
<mask id="mask0_1313_9621" style="mask-type:alpha" maskUnits="userSpaceOnUse" x="0" y="0" width="20" height="20">
<rect width="20" height="20" fill="#D9D9D9"/>
</mask>
<g mask="url(#mask0_1313_9621)">
<path d="M10.0019 13.1475C10.8767 13.1475 11.6196 12.8413 12.2307 12.2289C12.8418 11.6166 13.1474 10.873 13.1474 9.99817C13.1474 9.12337 12.8412 8.38042 12.2289 7.76931C11.6165 7.1582 10.8729 6.85264 9.99809 6.85264C9.12329 6.85264 8.38034 7.15882 7.76923 7.77119C7.15812 8.38356 6.85256 9.12715 6.85256 10.002C6.85256 10.8767 7.15874 11.6197 7.77111 12.2308C8.38348 12.8419 9.12707 13.1475 10.0019 13.1475ZM9.99998 12.0001C9.44443 12.0001 8.9722 11.8056 8.58331 11.4167C8.19443 11.0278 7.99998 10.5556 7.99998 10.0001C7.99998 9.44451 8.19443 8.97228 8.58331 8.58339C8.9722 8.19451 9.44443 8.00006 9.99998 8.00006C10.5555 8.00006 11.0278 8.19451 11.4166 8.58339C11.8055 8.97228 12 9.44451 12 10.0001C12 10.5556 11.8055 11.0278 11.4166 11.4167C11.0278 11.8056 10.5555 12.0001 9.99998 12.0001ZM10.0011 15.5834C8.13206 15.5834 6.42903 15.0756 4.89204 14.0601C3.35504 13.0447 2.20727 11.6913 1.44873 10.0001C2.20727 8.30882 3.35466 6.95546 4.8909 5.93998C6.42712 4.92449 8.12977 4.41675 9.99883 4.41675C11.8679 4.41675 13.5709 4.92449 15.1079 5.93998C16.6449 6.95546 17.7927 8.30882 18.5512 10.0001C17.7927 11.6913 16.6453 13.0447 15.1091 14.0601C13.5728 15.0756 11.8702 15.5834 10.0011 15.5834ZM9.99998 14.5001C11.5555 14.5001 12.993 14.0973 14.3125 13.2917C15.6319 12.4862 16.6458 11.3889 17.3541 10.0001C16.6458 8.61117 15.6319 7.51395 14.3125 6.70839C12.993 5.90284 11.5555 5.50006 9.99998 5.50006C8.44443 5.50006 7.00692 5.90284 5.68748 6.70839C4.36804 7.51395 3.35415 8.61117 2.64581 10.0001C3.35415 11.3889 4.36804 12.4862 5.68748 13.2917C7.00692 14.0973 8.44443 14.5001 9.99998 14.5001Z" fill="#374957" fill-opacity="0.8"/>
</g>
</svg>
