<svg width="47" height="46" viewBox="0 0 47 46" fill="none" xmlns="http://www.w3.org/2000/svg">
<path d="M23.0469 31.2307C25.2187 31.2307 27.0632 30.4706 28.5806 28.9503C30.098 27.4301 30.8566 25.584 30.8566 23.4123C30.8566 21.2405 30.0965 19.396 28.5763 17.8786C27.056 16.3612 25.21 15.6026 23.0382 15.6026C20.8665 15.6026 19.0219 16.3627 17.5046 17.8829C15.9872 19.4032 15.2285 21.2492 15.2285 23.421C15.2285 25.5927 15.9886 27.4373 17.5089 28.9546C19.0291 30.472 20.8752 31.2307 23.0469 31.2307ZM23.0426 28.5916C21.6051 28.5916 20.3832 28.0885 19.3769 27.0822C18.3707 26.076 17.8676 24.8541 17.8676 23.4166C17.8676 21.9791 18.3707 20.7572 19.3769 19.751C20.3832 18.7447 21.6051 18.2416 23.0426 18.2416C24.4801 18.2416 25.7019 18.7447 26.7082 19.751C27.7144 20.7572 28.2176 21.9791 28.2176 23.4166C28.2176 24.8541 27.7144 26.076 26.7082 27.0822C25.7019 28.0885 24.4801 28.5916 23.0426 28.5916ZM23.0426 36.8332C19.0078 36.8332 15.3176 35.757 11.9721 33.6044C8.62648 31.4518 5.95605 28.6198 3.96077 25.1084C3.80104 24.8332 3.68432 24.5559 3.61059 24.2763C3.53686 23.9968 3.5 23.7099 3.5 23.4157C3.5 23.1214 3.53686 22.8349 3.61059 22.556C3.68432 22.2771 3.80104 22 3.96077 21.7248C5.95605 18.2134 8.62648 15.3814 11.9721 13.2289C15.3176 11.0763 19.0078 10 23.0426 10C27.0774 10 30.7676 11.0763 34.1131 13.2289C37.4587 15.3814 40.1291 18.2134 42.1244 21.7248C42.2841 22 42.4008 22.2774 42.4746 22.5569C42.5483 22.8364 42.5851 23.1233 42.5851 23.4176C42.5851 23.7118 42.5483 23.9984 42.4746 24.2773C42.4008 24.5562 42.2841 24.8332 42.1244 25.1084C40.1291 28.6198 37.4587 31.4518 34.1131 33.6044C30.7676 35.757 27.0774 36.8332 23.0426 36.8332ZM23.0426 33.9583C26.6523 33.9583 29.9665 33.0079 32.9853 31.1072C36.004 29.2066 38.312 26.643 39.9092 23.4166C38.312 20.1902 36.004 17.6267 32.9853 15.726C29.9665 13.8253 26.6523 12.875 23.0426 12.875C19.4329 12.875 16.1186 13.8253 13.0999 15.726C10.0811 17.6267 7.77313 20.1902 6.17591 23.4166C7.77313 26.643 10.0811 29.2066 13.0999 31.1072C16.1186 33.0079 19.4329 33.9583 23.0426 33.9583Z" fill="white"/>
</svg>
