<svg width="40" height="40" viewBox="0 0 40 40" fill="none" xmlns="http://www.w3.org/2000/svg">
<mask id="mask0_978_2132" style="mask-type:alpha" maskUnits="userSpaceOnUse" x="0" y="0" width="40" height="40">
<rect width="40" height="40" fill="#D9D9D9"/>
</mask>
<g mask="url(#mask0_978_2132)">
<path d="M7.47433 34.3333C7.06658 34.3333 6.71892 34.1895 6.43133 33.902C6.14378 33.6144 6 33.2667 6 32.859V14.1945C6 13.7867 6.14378 13.439 6.43133 13.1514C6.71892 12.8639 7.06658 12.7201 7.47433 12.7201H12.7415V7.47433C12.7415 7.06658 12.8825 6.71892 13.1645 6.43133C13.4466 6.14378 13.797 6 14.2158 6H26.1389C26.5467 6 26.8943 6.14378 27.1819 6.43133C27.4695 6.71892 27.6133 7.06658 27.6133 7.47433V19.4615H32.859C33.2667 19.4615 33.6144 19.6053 33.902 19.8929C34.1896 20.1805 34.3333 20.5281 34.3333 20.9359V32.859C34.3333 33.2667 34.1896 33.6144 33.902 33.902C33.6144 34.1895 33.2667 34.3333 32.859 34.3333H22.8355V27.5919H17.4979V34.3333H7.47433ZM7.41025 32.9231H12.7415V27.5919H7.41025V32.9231ZM7.41025 26.1816H12.7415V20.8718H7.41025V26.1816ZM7.41025 19.4615H12.7415V14.1303H7.41025V19.4615ZM14.1517 26.1816H19.4615V20.8718H14.1517V26.1816ZM14.1517 19.4615H19.4615V14.1303H14.1517V19.4615ZM14.1517 12.7201H19.4615V7.41025H14.1517V12.7201ZM20.8718 26.1816H26.203V20.8718H20.8718V26.1816ZM20.8718 19.4615H26.203V14.1303H20.8718V19.4615ZM20.8718 12.7201H26.203V7.41025H20.8718V12.7201ZM27.6133 32.9231H32.9231V27.5919H27.6133V32.9231ZM27.6133 26.1816H32.9231V20.8718H27.6133V26.1816Z" fill="white"/>
</g>
</svg>
