<svg width="40" height="40" viewBox="0 0 40 40" fill="none" xmlns="http://www.w3.org/2000/svg">
<mask id="mask0_978_2122" style="mask-type:alpha" maskUnits="userSpaceOnUse" x="0" y="0" width="40" height="40">
<rect width="40" height="40" fill="#D9D9D9"/>
</mask>
<g mask="url(#mask0_978_2122)">
<path d="M7.83333 32.8334C7.17083 32.8334 6.61632 32.6102 6.16979 32.1636C5.72326 31.7171 5.5 31.1626 5.5 30.5001V14.5001C5.5 13.8376 5.72326 13.2831 6.16979 12.8365C6.61632 12.39 7.17083 12.1667 7.83333 12.1667H15.5V10.0001C15.5 9.33758 15.7233 8.78307 16.1698 8.33654C16.6163 7.89001 17.1708 7.66675 17.8333 7.66675H22.1667C22.8292 7.66675 23.3837 7.89001 23.8302 8.33654C24.2767 8.78307 24.5 9.33758 24.5 10.0001V12.1667H32.1667C32.8292 12.1667 33.3837 12.39 33.8302 12.8365C34.2767 13.2831 34.5 13.8376 34.5 14.5001V30.5001C34.5 31.1626 34.2767 31.7171 33.8302 32.1636C33.3837 32.6102 32.8292 32.8334 32.1667 32.8334H7.83333ZM16.5 12.1667H23.5V10.0001C23.5 9.66675 23.3611 9.36119 23.0833 9.08341C22.8056 8.80564 22.5 8.66675 22.1667 8.66675H17.8333C17.5 8.66675 17.1944 8.80564 16.9167 9.08341C16.6389 9.36119 16.5 9.66675 16.5 10.0001V12.1667ZM33.5 23.8334H22.5833V25.9167H17.4167V23.8334H6.5V30.5001C6.5 30.8334 6.63889 31.139 6.91667 31.4167C7.19444 31.6945 7.5 31.8334 7.83333 31.8334H32.1667C32.5 31.8334 32.8056 31.6945 33.0833 31.4167C33.3611 31.139 33.5 30.8334 33.5 30.5001V23.8334ZM18.4167 24.9167H21.5833V21.7501H18.4167V24.9167ZM6.5 22.8334H17.4167V20.7501H22.5833V22.8334H33.5V14.5001C33.5 14.1667 33.3611 13.8612 33.0833 13.5834C32.8056 13.3056 32.5 13.1667 32.1667 13.1667H7.83333C7.5 13.1667 7.19444 13.3056 6.91667 13.5834C6.63889 13.8612 6.5 14.1667 6.5 14.5001V22.8334Z" fill="white"/>
</g>
</svg>
