<svg width="40" height="40" viewBox="0 0 40 40" fill="none" xmlns="http://www.w3.org/2000/svg">
<mask id="mask0_978_2127" style="mask-type:alpha" maskUnits="userSpaceOnUse" x="0" y="0" width="40" height="40">
<rect width="40" height="40" fill="#D9D9D9"/>
</mask>
<g mask="url(#mask0_978_2127)">
<path d="M10.1517 35C9.27029 35 8.52465 34.6951 7.91479 34.0852C7.30493 33.4753 7 32.7297 7 31.8483V29.4872C7 28.8283 7.24128 28.2576 7.72383 27.7751C8.20636 27.2926 8.77704 27.0513 9.43587 27.0513H12V7.43587C12 6.77704 12.2413 6.20636 12.7238 5.72383C13.2064 5.24128 13.777 5 14.4359 5H31.2308C31.8896 5 32.4603 5.24128 32.9428 5.72383C33.4254 6.20636 33.6667 6.77704 33.6667 7.43587V31.8483C33.6667 32.7297 33.3617 33.4753 32.7519 34.0852C32.142 34.6951 31.4035 35 30.5363 35H10.1517ZM30.5339 33.5898C31.0206 33.5898 31.4293 33.4229 31.7602 33.0891C32.091 32.7553 32.2564 32.3417 32.2564 31.8483V7.43587C32.2564 7.13674 32.1603 6.89101 31.968 6.69871C31.7757 6.5064 31.5299 6.41025 31.2308 6.41025H14.4359C14.1367 6.41025 13.891 6.5064 13.6987 6.69871C13.5064 6.89101 13.4103 7.13674 13.4103 7.43587V27.0513H26.359C27.0178 27.0513 27.5885 27.2926 28.071 27.7751C28.5536 28.2576 28.7949 28.8283 28.7949 29.4872V31.8483C28.7949 32.3417 28.9615 32.7553 29.2948 33.0891C29.6282 33.4229 30.0412 33.5898 30.5339 33.5898ZM16.6795 13.4615C16.4797 13.4615 16.3122 13.3933 16.1771 13.257C16.0419 13.1206 15.9744 12.9516 15.9744 12.75C15.9744 12.5484 16.0419 12.3816 16.1771 12.2495C16.3122 12.1173 16.4797 12.0512 16.6795 12.0512H28.9872C29.187 12.0512 29.3544 12.1194 29.4896 12.2558C29.6247 12.3922 29.6923 12.5612 29.6923 12.7628C29.6923 12.9644 29.6247 13.1312 29.4896 13.2633C29.3544 13.3955 29.187 13.4615 28.9872 13.4615H16.6795ZM16.6795 18.0769C16.4797 18.0769 16.3122 18.0087 16.1771 17.8724C16.0419 17.736 15.9744 17.567 15.9744 17.3654C15.9744 17.1638 16.0419 16.997 16.1771 16.8648C16.3122 16.7327 16.4797 16.6667 16.6795 16.6667H28.9872C29.187 16.6667 29.3544 16.7348 29.4896 16.8712C29.6247 17.0076 29.6923 17.1766 29.6923 17.3782C29.6923 17.5797 29.6247 17.7466 29.4896 17.8787C29.3544 18.0108 29.187 18.0769 28.9872 18.0769H16.6795ZM10.1133 33.5898H27.3846V29.4872C27.3846 29.188 27.2885 28.9423 27.0962 28.75C26.9039 28.5577 26.6581 28.4615 26.359 28.4615H9.43587C9.13674 28.4615 8.89101 28.5577 8.69871 28.75C8.5064 28.9423 8.41025 29.188 8.41025 29.4872V31.8483C8.41025 32.3417 8.57669 32.7553 8.90958 33.0891C9.24247 33.4229 9.64369 33.5898 10.1133 33.5898ZM10.1133 33.5898H8.41025H27.3846H10.1133Z" fill="white"/>
</g>
</svg>
