<svg width="40" height="40" viewBox="0 0 40 40" fill="none" xmlns="http://www.w3.org/2000/svg">
<mask id="mask0_978_2137" style="mask-type:alpha" maskUnits="userSpaceOnUse" x="0" y="0" width="40" height="40">
<rect width="40" height="40" fill="#D9D9D9"/>
</mask>
<g mask="url(#mask0_978_2137)">
<path d="M20 32.8334C16.1945 32.8334 13.1042 32.382 10.7292 31.4792C8.35419 30.5765 7.16669 29.389 7.16669 27.9167V11.6667C7.16669 10.4167 8.41669 9.35425 10.9167 8.47925C13.4167 7.60425 16.4445 7.16675 20 7.16675C23.5556 7.16675 26.5834 7.60425 29.0834 8.47925C31.5834 9.35425 32.8334 10.4167 32.8334 11.6667V27.9167C32.8334 29.389 31.6459 30.5765 29.2709 31.4792C26.8959 32.382 23.8056 32.8334 20 32.8334ZM20 14.6667C22.3426 14.6667 24.7199 14.3404 27.132 13.6876C29.544 13.0348 31.051 12.301 31.6528 11.4862C31.0602 10.6343 29.5718 9.86814 27.1875 9.18758C24.8033 8.50703 22.4074 8.16675 20 8.16675C17.6297 8.16675 15.2246 8.49314 12.7847 9.14591C10.3449 9.79869 8.83798 10.5232 8.2639 11.3195C8.8102 12.1899 10.2847 12.9654 12.6875 13.6459C15.0903 14.3265 17.5278 14.6667 20 14.6667ZM20 23.2223C21.1389 23.2223 22.2732 23.1621 23.4028 23.0417C24.5324 22.9214 25.6088 22.7455 26.632 22.514C27.6551 22.2825 28.6111 21.9955 29.5 21.6529C30.3889 21.3103 31.1667 20.9306 31.8334 20.514V12.8334C31.1482 13.2686 30.3658 13.6575 29.4861 14.0001C28.6065 14.3427 27.6505 14.6297 26.6181 14.8612C25.5857 15.0927 24.5093 15.2686 23.3889 15.389C22.2685 15.5093 21.1389 15.5695 20 15.5695C18.8056 15.5695 17.6366 15.5024 16.4931 15.3681C15.3496 15.2339 14.2685 15.051 13.25 14.8195C12.2315 14.588 11.294 14.3079 10.4375 13.9792C9.58105 13.6505 8.8241 13.2686 8.16669 12.8334V20.514C8.80558 20.9306 9.5579 21.3033 10.4236 21.632C11.2894 21.9607 12.2315 22.2455 13.25 22.4862C14.2685 22.7269 15.3449 22.9098 16.4792 23.0348C17.6134 23.1598 18.787 23.2223 20 23.2223ZM20 31.8334C21.4908 31.8334 22.8843 31.7524 24.1806 31.5904C25.4769 31.4283 26.6343 31.1968 27.6528 30.8959C28.6713 30.595 29.5394 30.2269 30.257 29.7917C30.9746 29.3566 31.5 28.8797 31.8334 28.3612V21.514C31.1667 21.9492 30.3889 22.3334 29.5 22.6667C28.6111 23.0001 27.6551 23.2825 26.632 23.514C25.6088 23.7455 24.5324 23.9214 23.4028 24.0417C22.2732 24.1621 21.1389 24.2223 20 24.2223C18.787 24.2223 17.6134 24.1598 16.4792 24.0348C15.3449 23.9098 14.2685 23.7316 13.25 23.5001C12.2315 23.2686 11.294 22.9839 10.4375 22.6459C9.58105 22.3079 8.8241 21.9306 8.16669 21.514V28.3612C8.50002 28.9075 9.02548 29.3913 9.74306 29.8126C10.4607 30.2339 11.3287 30.595 12.3472 30.8959C13.3658 31.1968 14.5232 31.4283 15.8195 31.5904C17.1158 31.7524 18.5093 31.8334 20 31.8334Z" fill="white"/>
</g>
</svg>
